# 3ds Max Wavefront OBJ Exporter v0.97b - (c)2007 guruware
# File Created: 28.11.2016 15:03:10

mtllib Pieza1.mtl

#
# object Box001
#

v  -5.000000 0.000000 5.000000
v  -5.000000 0.000000 -5.000000
v  5.000000 0.000000 -5.000000
v  5.000000 0.000000 5.000000
v  5.000000 10.000000 5.000000
v  -5.000000 10.000000 5.000000
v  5.000000 10.000000 -5.000000
v  -5.000000 10.000000 -5.000000
v  -2.349232 10.000000 0.855050
v  -2.500000 10.000000 -0.000000
v  -1.915112 10.000000 1.606969
v  1.915111 15.000000 -1.606969
v  2.349231 15.000000 -0.855050
v  2.349231 10.000000 -0.855050
v  1.915111 10.000000 -1.606969
v  2.500000 15.000000 -0.000000
v  2.500000 10.000000 -0.000000
v  -2.349231 15.000000 -0.855051
v  -0.434121 15.000000 -2.462019
v  -1.250000 15.000000 -2.165063
v  -1.915111 15.000000 -1.606969
v  0.434120 15.000000 -2.462019
v  1.250000 15.000000 -2.165064
v  1.250000 10.000000 -2.165064
v  0.434120 10.000000 -2.462019
v  -0.434121 10.000000 -2.462019
v  -1.250000 10.000000 -2.165063
v  -1.915111 10.000000 -1.606969
v  -2.349231 10.000000 -0.855051
v  -2.500000 15.000000 -0.000000
v  -2.349232 15.000000 0.855050
v  -1.915112 15.000000 1.606969
v  -1.250001 15.000000 2.165063
v  -1.250001 10.000000 2.165063
v  -0.434121 15.000000 2.462019
v  -0.434121 10.000000 2.462019
v  0.434119 15.000000 2.462020
v  0.434119 10.000000 2.462020
v  1.249999 15.000000 2.165064
v  1.249999 10.000000 2.165064
v  1.915110 10.000000 1.606970
v  1.915110 15.000000 1.606970
v  2.349231 10.000000 0.855052
v  2.349231 15.000000 0.855052
# 44 vertices

vn 0.000000 -1.000000 -0.000000
vn 0.000000 0.000000 1.000000
vn 1.000000 0.000000 -0.000000
vn 0.000000 0.000000 -1.000000
vn -1.000000 0.000000 -0.000000
vn 0.000000 1.000000 -0.000000
vn 0.766044 0.000000 -0.642788
vn 0.939693 0.000000 -0.342020
vn 1.000000 0.000000 0.000000
vn 0.173648 0.000000 -0.984808
vn 0.500000 0.000000 -0.866025
vn -0.173648 0.000000 -0.984808
vn -0.500000 0.000000 -0.866025
vn -0.766044 0.000000 -0.642788
vn -0.939693 0.000000 -0.342020
vn -0.939693 0.000000 0.342020
vn -0.766045 0.000000 0.642787
vn -0.500000 0.000000 0.866025
vn -0.173649 0.000000 0.984808
vn 0.173648 0.000000 0.984808
vn 0.499999 0.000000 0.866026
vn 0.500000 0.000000 0.866026
vn 0.766044 0.000000 0.642788
vn 0.939692 0.000000 0.342021
# 24 vertex normals

vt 1.000000 0.000000 0.000000
vt 1.000000 1.000000 0.000000
vt 0.000000 1.000000 0.000000
vt 0.000000 0.000000 0.000000
vt 0.265077 0.414495 0.000000
vt 0.250000 0.500000 0.000000
vt 0.308489 0.339303 0.000000
vt 0.861111 1.000000 1.000000
vt 0.805556 1.000000 1.000000
vt 0.805556 0.500000 1.000000
vt 0.861111 0.500000 1.000000
vt 0.750000 1.000000 1.000000
vt 0.750000 0.500000 1.000000
vt 0.805555 0.500000 1.000000
vt 0.515259 1.000000 -0.347296
vt 0.876370 1.000000 0.652703
vt 0.785378 1.000000 0.347296
vt 0.659966 1.000000 0.000000
vt 0.972222 1.000000 1.000000
vt 0.916667 1.000000 1.000000
vt 0.916667 0.500000 1.000000
vt 0.972222 0.500000 1.000000
vt 0.027778 1.000000 1.000000
vt -0.027778 1.000000 1.000000
vt -0.027778 0.500000 1.000000
vt 0.027778 0.500000 1.000000
vt 0.083333 1.000000 1.000000
vt 0.083333 0.500000 1.000000
vt 0.138889 1.000000 1.000000
vt 0.138889 0.500000 1.000000
vt 0.194444 1.000000 1.000000
vt 0.194444 0.500000 1.000000
vt 0.250000 1.000000 1.000000
vt 0.250000 0.500000 1.000000
vt 0.305555 0.500000 1.000000
vt 0.305556 1.000000 1.000000
vt 0.361111 1.000000 1.000000
vt 0.305555 1.000000 1.000000
vt 0.305556 0.500000 1.000000
vt 0.361111 0.500000 1.000000
vt 0.416667 1.000000 1.000000
vt 0.416667 0.500000 1.000000
vt 0.472222 1.000000 1.000000
vt 0.472222 0.500000 1.000000
vt 0.527778 1.000000 1.000000
vt 0.527778 0.500000 1.000000
vt 0.583333 1.000000 1.000000
vt 0.583333 0.500000 1.000000
vt 0.638889 0.500000 1.000000
vt 0.638889 1.000000 1.000000
vt 0.694444 0.500000 1.000000
vt 0.694444 1.000000 1.000000
vt 0.625000 0.283494 0.000000
vt 0.691511 0.339303 0.000000
vt 0.543412 0.253798 0.000000
vt 0.456588 0.253798 0.000000
vt 0.375000 0.283494 0.000000
vt 0.734923 0.414495 0.000000
vt 0.734923 0.585505 0.000000
vt 0.750000 0.500000 0.000000
vt 0.625000 0.716506 0.000000
vt 0.691511 0.660697 0.000000
vt 0.543412 0.746202 0.000000
vt 0.375000 0.716506 0.000000
vt 0.456588 0.746202 0.000000
vt 0.265077 0.585505 0.000000
vt 0.308489 0.660697 0.000000
vt 0.214621 1.000000 -0.347297
vt 0.083333 1.000000 -1.000000
vt 0.078034 1.000000 -0.879385
vt 0.123630 1.000000 -0.652704
vt 0.238000 1.000000 -0.879385
vt 0.138889 1.000000 -1.000000
vt 0.368712 1.000000 -0.652703
vt 0.340034 1.000000 -0.000001
vt 0.484740 1.000000 0.347296
vt 0.631288 1.000000 0.652704
vt 0.762000 1.000000 0.879385
vt 0.921966 1.000000 0.879385
# 79 texture coords

g Box001
usemtl wire_088144225
s 2
f 1/1/1 2/2/1 3/3/1 4/4/1 
s 8
f 1/4/2 4/1/2 5/2/2 6/3/2 
s 16
f 4/4/3 3/1/3 7/2/3 5/3/3 
s 32
f 3/4/4 2/1/4 8/2/4 7/3/4 
s 64
f 2/4/5 1/1/5 6/2/5 8/3/5 
s 4
f 9/5/6 10/6/6 6/4/6 11/7/6 
s 2
f 12/8/7 13/9/8 14/10/8 15/11/7 
f 13/9/8 16/12/9 17/13/9 14/14/8 
s 1
f 18/15/6 19/16/6 20/17/6 21/18/6 
s 2
f 22/19/10 23/20/11 24/21/11 25/22/10 
f 19/23/12 22/24/10 25/25/10 26/26/12 
f 20/27/13 19/23/12 26/26/12 27/28/13 
f 21/29/14 20/27/13 27/28/13 28/30/14 
f 18/31/15 21/29/14 28/30/14 29/32/15 
f 30/33/5 18/31/15 29/32/15 10/34/5 
f 30/33/5 10/34/5 9/35/16 31/36/16 
f 32/37/17 31/38/16 9/39/16 11/40/17 
f 33/41/18 32/37/17 11/40/17 34/42/18 
f 35/43/19 33/41/18 34/42/18 36/44/19 
f 37/45/20 35/43/19 36/44/19 38/46/20 
f 39/47/21 37/45/20 38/46/20 40/48/22 
f 39/47/21 40/48/22 41/49/23 42/50/23 
f 42/50/23 41/49/23 43/51/24 44/52/24 
f 16/12/9 44/52/24 43/51/24 17/13/9 
f 23/20/11 12/8/7 15/11/7 24/21/11 
s 4
f 40/53/6 6/4/6 5/1/6 41/54/6 
f 38/55/6 36/56/6 6/4/6 40/53/6 
f 34/57/6 11/7/6 6/4/6 36/56/6 
f 5/1/6 7/2/6 43/58/6 41/54/6 
f 7/2/6 14/59/6 17/60/6 43/58/6 
f 7/2/6 24/61/6 15/62/6 14/59/6 
f 8/3/6 25/63/6 24/61/6 7/2/6 
f 8/3/6 27/64/6 26/65/6 25/63/6 
f 8/3/6 29/66/6 28/67/6 27/64/6 
f 6/4/6 10/6/6 29/66/6 8/3/6 
s 1
f 39/68/6 33/69/6 35/70/6 37/71/6 
f 39/68/6 31/72/6 32/73/6 33/69/6 
f 39/68/6 18/15/6 30/74/6 31/72/6 
f 42/75/6 44/76/6 18/15/6 39/68/6 
f 16/77/6 13/78/6 18/15/6 44/76/6 
f 12/8/6 23/20/6 18/15/6 13/78/6 
f 22/79/6 19/16/6 18/15/6 23/20/6 
# 42 polygons

